PathFileType	4	(X/Y/Z)	RBDS010\RBDS010runT45.trc
DataRate	CameraRate	NumFrames	NumMarkers	Units	OrigDataRate	OrigDataStartFrame	OrigNumFrames
150.000000	150.000000	4	32	mm	150.000000	3375	4500
Frame#	Time	L.ASIS			L.Heel.Bottom			L.Heel.Lateral			L.Heel.Top			L.Iliac.Crest			L.MT5			L.PSIS			L.Shank.Bottom.Lateral			L.Shank.Bottom.Medial			L.Shank.Top.Lateral			L.Shank.Top.Medial			L.Thigh.Bottom.Lateral			L.Thigh.Bottom.Medial			L.Thigh.Top.Lateral			L.Thigh.Top.Medial			R.ASIS			R.ASY			R.Heel.Bottom			R.Heel.Lateral			R.Heel.Top			R.Iliac.Crest			R.MT1			R.MT5			R.PSIS			R.Shank.Bottom.Lateral			R.Shank.Bottom.Medial			R.Shank.Top.Lateral			R.Shank.Top.Medial			R.Thigh.Bottom.Lateral			R.Thigh.Bottom.Medial			R.Thigh.Top.Lateral			R.Thigh.Top.Medial			
		X1	Y1	Z1	X2	Y2	Z2	X3	Y3	Z3	X4	Y4	Z4	X5	Y5	Z5	X6	Y6	Z6	X7	Y7	Z7	X8	Y8	Z8	X9	Y9	Z9	X10	Y10	Z10	X11	Y11	Z11	X12	Y12	Z12	X13	Y13	Z13	X14	Y14	Z14	X15	Y15	Z15	X16	Y16	Z16	X17	Y17	Z17	X18	Y18	Z18	X19	Y19	Z19	X20	Y20	Z20	X21	Y21	Z21	X22	Y22	Z22	X23	Y23	Z23	X24	Y24	Z24	X25	Y25	Z25	X26	Y26	Z26	X27	Y27	Z27	X28	Y28	Z28	X29	Y29	Z29	X30	Y30	Z30	X31	Y31	Z31	X32	Y32	Z32	

3376	22.5	2361.33813813747	971.9909009750662	857.6827758029453	2494.353302238956	65.92399510801968	943.5762284784245	2519.583416849356	74.63344143744239	894.4591308773151	2495.702113666564	115.9627815827221	931.5042363600639	2311.809209906954	1062.419445091025	827.7060750547483	2679.076235022384	82.97043149712019	863.9844499743638	2214.197825719364	1030.265842347487	940.9019209309325	2517.486233150637	202.7233249795792	866.4002176006637	2487.972614346825	201.1229834361581	911.3531296100285	2486.691777404249	274.888987120442	848.5977515434193	2456.831723151573	274.0406374483551	893.7293118800646	2410.179681266343	595.6842245659473	815.6040071808651	2368.798070218797	569.6455358953947	869.1514090981418	2340.164215440697	680.5413195980301	805.3762108914285	2301.112306638476	656.9570632799201	856.233223494077	2390.805939882523	949.3320648270768	1078.251863087914	1721.961620564268	284.9567995622054	1030.543987025973	1649.745918350396	459.0469852596092	1025.474842242155	1665.383101014537	430.4243170192246	1069.741684185837	1697.755691532678	452.5088776317311	1030.9899305297	2349.14154797225	1046.206788835566	1118.330336091911	1681.018263203292	256.0158617559063	966.5717215594216	1660.152517422664	266.7588411784636	1078.228082015885	2230.007122819955	1031.948570264774	1039.430594822394	1793.97841141574	420.2783159484943	1080.0868822217	1777.194173948231	460.3010715178783	1052.353186508079	1868.888243189803	459.543486371829	1088.995733043969	1847.272052632045	499.7488093139951	1060.866113538314	2150.427342507433	620.0379700190985	1109.7999396579	2092.616640643436	649.141808273799	1074.607902299807	2186.326019092891	721.6831460338373	1129.615286775145	2132.576266511848	749.742788789068	1096.529510210441	
3377	22.50666666666667	2360.234550433546	970.6282231807595	857.3030026673018	2500.965946529966	64.39250816536311	949.8726243319848	2525.230965023435	71.87021153262184	900.0851816691702	2501.815210534143	114.0658644303887	936.3307826495936	2310.365831254934	1060.544805338302	828.0062443324192	2683.753399869256	80.27644799686448	866.3254635373686	2213.294959070818	1027.387778226858	942.2320274331198	2520.322798648855	199.5954005129815	869.7832040006042	2491.835479253039	197.8296909529911	915.5564803116367	2487.461390679382	271.0953179938009	852.1078994400162	2458.665267145321	270.0522686008334	898.0529227769733	2405.368734183376	591.5813712876457	816.2249257711433	2364.80410284263	566.7824490832716	871.2366686940178	2336.122291867477	677.0641893143159	806.2810668354853	2297.671186723968	654.5198662227186	858.2424691940708	2391.915473570607	947.996051634635	1077.979808024638	1717.364699129669	299.9557429166171	1031.625382670321	1655.577158702539	477.0301534002968	1022.833306059778	1668.674299827232	448.4490603604696	1067.732008841284	1702.897948900035	468.0374644126574	1029.383988722092	2348.338693578603	1044.557043496104	1118.778619275638	1676.193967255251	272.0541095804289	967.4760737872598	1654.048585355109	285.7746726906454	1078.392175663763	2230.131108928134	1028.714226711663	1040.554166971422	1796.524373083789	431.0771878666828	1079.895472091074	1782.147679585854	471.439071463479	1051.323006105615	1873.476209598457	466.2483314004066	1088.576964573783	1854.275678112638	507.0945351594445	1059.647857677259	2156.674276661068	613.9977824778067	1110.269283389657	2098.868277524158	641.6474972524178	1074.047402073643	2190.322251740587	716.4610508007956	1129.655874463273	2136.377737750086	743.2170162346102	1095.821204113627	
3378	22.51333333333334	2358.936520398306	969.0519895458731	856.7276078587764	2503.369868781392	62.88071404316965	955.8669753888602	2526.787290926356	69.14017960458195	905.5079258475748	2504.209316585169	112.1947408399369	941.1586524968548	2308.552206278223	1058.610120201636	828.4036924103074	2684.435768465344	76.44866731240305	868.627601377148	2212.297609727193	1024.099462630385	943.7681767664903	2520.507846848749	196.1444951569834	873.2739020643814	2492.980396969636	194.4545716444639	919.8343816289079	2486.424481621176	267.2692069034904	855.7701078398122	2458.637786982281	266.2818305283218	902.4942147792671	2401.307999886838	587.669200057386	817.2399777665139	2361.351552681381	563.8095252580932	873.3056150201303	2332.665916036983	673.6253322229825	807.4970154529207	2294.676882487298	651.8768548100967	860.2644238868971	2392.914864191212	946.0955326774124	1077.494783361572	1715.053015753657	314.4221603090613	1032.967329115837	1664.027821868174	494.2263119837854	1020.080495561554	1674.517939542917	465.8094231106604	1065.635759828111	1710.543334210251	482.7270658128622	1027.713070798165	2348.072591376144	1042.147127937521	1119.221222743898	1673.599125602546	287.5700045721846	968.5415438496838	1650.286759014132	304.4987331384478	1078.713293668515	2230.245820623432	1024.838107218715	1041.907446418806	1801.173360899799	441.088642640826	1079.721249563184	1789.229198334348	481.628350696405	1050.279622088947	1879.922803483948	472.0479967891246	1088.183367089539	1863.18067761555	513.3611015606251	1058.432597312717	2163.357616927945	607.1971316503116	1110.797695801954	2105.547329700327	633.2736330288951	1073.498038206947	2194.533551264442	710.5216775853668	1129.701682632464	2140.393727175432	735.8575320438093	1095.077827680492	
3379	22.52	2357.461438415117	967.2110700287101	855.987011403742	2501.498825213219	61.133324966408	961.4063201162035	2524.230668172669	66.301718189106	910.6056519360011	2502.786212591442	110.135347867884	945.909400136513	2306.377028974634	1056.536522950641	828.8855504753082	2681.191089685378	71.62048658067724	870.968309491224	2211.201478958576	1020.388615931955	945.4446268956017	2518.090243942083	192.2551148660384	876.8044078497318	2491.340939992808	190.8748377749619	924.0230556458075	2483.670285236044	263.3072149099339	859.4243424989727	2456.717925923302	262.6232722978614	906.800403495113	2398.067505801595	583.8966127295582	818.5765744006331	2358.498046997033	560.6692289822695	875.2902698078487	2329.842118894686	670.1571997332843	808.9419407819306	2292.16686096064	648.9564370647287	862.2214915738986	2393.746720270911	943.6344861348107	1076.837083462773	1715.190728133609	328.2151850922206	1034.482344291849	1674.872410022973	510.4056040279452	1017.508246366615	1682.846375368874	482.2306190597134	1063.698488569019	1720.502600246707	496.4230046881867	1026.155767166258	2348.365019138437	1039.021173268507	1119.620119468661	1673.321538042116	302.4608040847369	969.7262743431342	1649.164947118267	322.6180120900092	1079.2357024276	2230.30503226614	1020.38726604608	1043.420946852177	1807.913927697999	450.2154906967513	1079.600633599908	1798.385174119815	490.8036626615279	1049.323685447757	1888.207959209234	476.8739596896252	1087.850870745752	1873.922459996769	518.5106392829169	1057.326287209552	2170.510439473681	599.713337058031	1111.372463483161	2112.64536527016	624.1277547820916	1073.037907596941	2199.012955703465	703.9054447663889	1129.788656203701	2144.638500298452	727.7348330057059	1094.429539840681	
